<?xml version="1.0" standalone="no"?><!DOCTYPE svg PUBLIC "-//W3C//DTD SVG 1.1//EN" "http://www.w3.org/Graphics/SVG/1.1/DTD/svg11.dtd"><svg t="1773547216298" class="icon" viewBox="0 0 1024 1024" version="1.1" xmlns="http://www.w3.org/2000/svg" p-id="6195" xmlns:xlink="http://www.w3.org/1999/xlink" width="200" height="200"><path d="M512 1016.888889C233.159111 1016.888889 7.111111 790.840889 7.111111 512S233.159111 7.111111 512 7.111111 1016.888889 233.159111 1016.888889 512 790.840889 1016.888889 512 1016.888889z" fill="#FFFFFF" p-id="6196"></path><path d="M175.985778 879.260444C76.572444 788.238222 14.222222 657.393778 14.222222 512 14.222222 237.084444 237.084444 14.222222 512 14.222222s497.777778 222.862222 497.777778 497.777778c0 140.728889-58.396444 267.818667-152.291556 358.357333-42.595556-106.638222-178.275556-184.604444-339.100444-184.604444-165.233778 0-303.957333 82.346667-342.4 193.507555z m334.848-732.088888c-143.331556 0-259.555556 113.237333-259.555556 252.899555s116.224 252.899556 259.555556 252.899556c143.345778 0 259.555556-113.237333 259.555555-252.899556s-116.209778-252.899556-259.555555-252.899555z m86.513778 372.693333s-89.486222 115.157333-199.651556 6.769778L597.333333 519.864889z" fill="#CCE5FF" p-id="6197"></path></svg>