<?xml version="1.0" standalone="no"?><!DOCTYPE svg PUBLIC "-//W3C//DTD SVG 1.1//EN" "http://www.w3.org/Graphics/SVG/1.1/DTD/svg11.dtd"><svg t="1775870660608" class="icon" viewBox="0 0 1024 1024" version="1.1" xmlns="http://www.w3.org/2000/svg" p-id="4447" width="200" height="200" xmlns:xlink="http://www.w3.org/1999/xlink"><path d="M482.48452741 20.33436445l204.74417304 78.8529152L687.22870045 418.79324445c0 0 144.81222922-59.96301275 84.88028538-169.7916397 79.90925843-24.97941049 174.79373558 0 84.8802854 169.7916397-89.88238128 169.76057078-399.48415431 274.02786133-399.48415431 274.02786133L457.50511692 20.33436445 482.48452741 20.33436445z" fill="#d81e06" p-id="4448"></path><path d="M407.57736485 64.23474631L407.57736485 692.82110578c0 0-404.57945695 157.11552095-307.45801765-142.54419816 20.75403757-59.24842762 122.72222815-66.58069238 122.72222815-66.58069239s-94.88447715 164.82061275 69.90506667 94.85340824c5.00209588-74.90716255 0-419.4304 0-419.4304L407.57736485 64.23474631z" fill="#d81e06" p-id="4449"></path><path d="M281.06472865 783.2937965l126.4815673-24.94834157 0 239.69670637c0 0-379.5068397 44.9567251-389.47996256-119.83281872 5.00209588-129.86807941 5.00209588-129.86807941 5.00209589-129.86807941s69.90506667 184.76685843 254.67192509 104.91973784C277.74035437 798.30008415 281.06472865 783.2937965 281.06472865 783.2937965z" fill="#d81e06" p-id="4450"></path><path d="M465.83158708 741.69251461l194.7710502-96.468992 0 68.19627614c0 0 312.92614732-109.82862697 324.57699175-372.82702222 26.62606317 41.6012819 103.21094732 231.40130512-123.157193 416.10602572-226.39920925 184.76685843-396.19084895 204.74417303-396.19084895 204.74417304L465.83158708 741.69251461z" fill="#d81e06" p-id="4451"></path></svg>